<svg width="1120" height="300" viewBox="0 0 1120 300" xmlns="http://www.w3.org/2000/svg">
  <rect width="1120" height="300" rx="66" fill="#0d0d12"/>
  <path transform="translate(-27,3) scale(0.3)" fill="#ffffff" fill-rule="evenodd" d="M 365.746 183.028 C 328.148 192.469, 307.727 245.728, 311.949 323.334 C 312.552 334.425, 313.290 344.855, 313.589 346.510 C 314.329 350.610, 312.721 354.368, 308.798 357.705 C 287.790 375.577, 275.326 392.225, 267.142 413.346 C 259.240 433.737, 256.474 451.093, 257.288 475.176 C 258.107 499.422, 262.357 516.966, 272.175 536.631 C 278.191 548.682, 278.192 548.609, 271.605 567.500 C 262.700 593.038, 259.445 614.610, 260.296 642.444 C 261.123 669.462, 265.266 686.479, 276.204 707.792 C 279.392 714.003, 282 719.992, 282 721.102 C 282 722.212, 279.569 730.405, 276.599 739.310 C 268.303 764.176, 266.497 774.593, 266.513 797.500 C 266.532 824.805, 269.306 833.276, 280.020 838.750 C 289.252 843.467, 300.202 839.663, 305.311 829.966 C 308.427 824.050, 308.414 824.505, 306.018 806.237 C 303.733 788.816, 308.344 765.410, 319.654 737.010 C 327.989 716.082, 327.958 714.981, 318.639 701.072 C 315.111 695.807, 311.330 689.700, 310.235 687.500 C 293.868 654.598, 296.556 602.352, 316.733 561.219 C 322.736 548.980, 323.286 541.876, 318.731 535.423 C 301.768 511.393, 296.709 496.250, 296.709 469.500 C 296.709 409.286, 332.461 373.513, 397.235 368.914 C 417.459 367.478, 419.929 366.099, 427.521 352.004 C 442.637 323.941, 473.456 306.581, 510.500 305.263 C 548.218 303.921, 576.258 319.128, 595.470 351.345 C 605.530 368.215, 605.624 368.267, 627.871 369.101 C 662.268 370.392, 680.872 377.630, 699.258 396.874 C 723.334 422.075, 733.391 464.778, 723.948 501.705 C 720.794 514.037, 716.951 521.127, 708.737 529.766 C 696.761 542.363, 696.465 547.405, 706.683 564.768 C 719.534 586.602, 725.046 605.034, 725.743 628.500 C 726.560 655.980, 721.450 674.149, 704.677 703.406 C 697.997 715.059, 697.958 718.096, 704.287 734 C 714.651 760.042, 717.659 776.802, 716.490 802 C 715.335 826.894, 715.355 827.223, 718.332 832.304 C 723.456 841.047, 734.318 844.153, 743.554 839.517 C 752.811 834.870, 755.512 827.534, 756.631 804 C 757.726 780.952, 754.224 756.743, 746.402 733.304 C 741.971 720.023, 742.024 719.346, 748.581 705.551 C 755.313 691.389, 761.108 674.046, 763.635 660.500 C 766.398 645.684, 766.144 615.293, 763.142 601.564 C 760.323 588.673, 754.099 570.133, 749.577 561.154 C 744.995 552.055, 745.072 550.262, 750.438 541.088 C 776.233 496.982, 771.779 429.006, 740.145 384 C 737.632 380.425, 730.249 372.007, 723.737 365.293 L 711.898 353.086 712.699 340.293 C 714.129 317.451, 713.574 277.824, 711.644 265 C 705.496 224.143, 691.585 199.241, 668.575 187.899 C 660.003 183.673, 659.291 183.500, 650.524 183.500 C 641.991 183.500, 640.902 183.744, 633.803 187.253 C 629.627 189.317, 623.985 193.006, 621.266 195.451 C 607.320 207.990, 594.225 235.752, 588.934 264 C 586.426 277.393, 585.377 280.641, 583.307 281.436 C 582.477 281.754, 577.905 280.265, 573.149 278.126 C 535.746 261.305, 494.926 261.134, 454.731 277.630 C 440.427 283.500, 440.129 283.355, 437.994 269.500 C 432.992 237.047, 417.453 203.957, 401.591 191.981 C 390.467 183.582, 376.966 180.210, 365.746 183.028 M 369.693 225.965 C 358.034 236.201, 351.599 263.879, 351.550 304 C 351.509 336.868, 351.167 336.213, 366.728 333.079 C 372.103 331.996, 379.425 330.826, 383 330.479 C 386.575 330.132, 390.734 329.379, 392.241 328.806 C 408.747 322.535, 399.854 247.750, 380.138 227.025 C 375.564 222.216, 374.128 222.071, 369.693 225.965 M 645.092 228.548 C 633.115 242.189, 624.433 275.774, 625.199 305.500 C 625.763 327.370, 627.208 329.996, 638.684 330.004 C 641.883 330.006, 648.550 330.707, 653.500 331.562 C 670.468 334.493, 670.540 334.495, 672.363 331.892 C 673.762 329.894, 674 326.257, 674 306.829 C 674 272.800, 670.942 253.498, 662.985 237.307 C 656.656 224.426, 651.099 221.706, 645.092 228.548 M 497 458.087 C 453.389 463.679, 417.089 491.961, 408.023 527.410 C 399.416 561.066, 421.506 595.824, 460.909 610.625 C 494.383 623.198, 544.951 621.042, 575.500 605.740 C 594.010 596.468, 606.514 582.677, 612.670 564.745 C 616.777 552.779, 616.847 531.300, 612.814 520.194 C 604.505 497.311, 582.319 475.439, 557.843 466 C 537.321 458.085, 517.309 455.483, 497 458.087 M 372.054 464.675 C 362.934 468.003, 355 479.319, 355 489 C 355 498.805, 363.794 511.177, 372.616 513.784 C 390.968 519.206, 408.057 506.218, 406.814 487.793 C 405.602 469.831, 388.711 458.597, 372.054 464.675 M 634.316 464.326 C 619.230 469.888, 612.201 486.848, 619.273 500.620 C 631.676 524.773, 668.031 516.546, 668.413 489.500 C 668.617 475.045, 656.921 463.152, 642.500 463.152 C 639.750 463.152, 636.067 463.680, 634.316 464.326 M 491.483 486.981 C 453.596 495.549, 427.758 525.620, 435.599 552.021 C 441.222 570.955, 460.897 584.871, 488.758 589.620 C 500.786 591.670, 529.742 591.057, 541 588.513 C 569.918 581.979, 584.378 569.720, 588.052 548.622 C 592.534 522.886, 567.376 494.479, 533.500 487.024 C 521.720 484.431, 502.844 484.412, 491.483 486.981 M 494.388 517.980 C 491.024 519.339, 488 523.930, 488 527.678 C 488 530.314, 488.987 532.151, 492.360 535.793 C 498.184 542.080, 499 543.884, 499 550.474 C 499 564.312, 510.296 571.564, 518.504 562.996 C 520.900 560.495, 521.388 558.964, 521.997 552.036 C 522.489 546.437, 523.255 543.376, 524.510 541.989 C 525.503 540.891, 527.984 538.240, 530.022 536.097 C 536.067 529.742, 535.670 521.949, 529.128 518.566 C 525.034 516.449, 523.714 516.567, 516.799 519.671 L 510.849 522.341 505.574 519.671 C 500.066 516.882, 497.912 516.556, 494.388 517.980"/>
  <text x="252" y="203" font-family="Inter,-apple-system,'SF Pro Display','Segoe UI',Roboto,Arial,sans-serif" font-size="150" font-weight="600" letter-spacing="-2" fill="#ffffff">LlamaChat</text>
</svg>
